# Blender 5.0.1
# www.blender.org
mtllib Pod.mtl
o Pod
v 0.111225 2.049759 6.827707
v 0.117366 2.052382 7.022985
v 0.118204 0.188833 7.237969
v -0.117296 2.052382 7.022985
v -0.118134 0.188833 7.237969
v -0.111156 2.049759 6.827707
v -0.114194 0.183677 7.042632
v 0.114264 0.183677 7.042632
v 3.473176 0.948650 -4.809134
v 3.472405 0.941647 -4.612721
v 3.884031 0.182049 -4.599590
v 3.240233 0.943064 -4.612733
v 3.650057 0.194577 -4.598747
v 3.240649 0.950072 -4.809151
v 3.653008 0.188912 -4.796265
v 3.885440 0.187490 -4.796052
v -3.473107 0.948650 -4.809134
v -3.472336 0.941647 -4.612721
v -3.883961 0.182049 -4.599590
v -3.240163 0.943064 -4.612733
v -3.649988 0.194577 -4.598747
v -3.240579 0.950072 -4.809151
v -3.652938 0.188912 -4.796265
v -3.885370 0.187490 -4.796052
v 0.581983 0.011373 6.795408
v -0.581913 0.011373 6.795408
v 0.582036 0.194386 6.797033
v -0.581966 0.194386 6.797033
v -0.579146 0.186157 9.253812
v -0.581771 0.017753 9.253920
v 0.579215 0.186157 9.253812
v 0.581841 0.017753 9.253920
v 4.198420 0.016082 -5.824818
v 3.305895 0.010143 -5.826287
v 4.198705 0.188026 -5.828933
v 3.306230 0.184758 -5.827202
v 3.307111 0.190501 -3.370244
v 3.306875 0.022909 -3.366053
v 4.198824 0.185081 -3.369559
v 4.198395 0.014887 -3.368466
v -3.306160 0.184758 -5.827202
v -4.198636 0.188026 -5.828933
v -3.305826 0.010143 -5.826287
v -4.198350 0.016082 -5.824818
v -3.306805 0.022909 -3.366053
v -3.307041 0.190501 -3.370244
v -4.198326 0.014887 -3.368466
v -4.198755 0.185081 -3.369559
v 3.472721 6.700483 -3.732648
v -3.473909 6.700483 -3.732648
v 3.482806 7.304434 -4.038276
v -3.468897 7.304434 -4.038276
v -3.468077 7.302359 -7.676322
v -3.477032 4.682682 -5.661799
v -3.475502 6.705229 -1.074463
v -3.477425 0.893905 0.665828
v -3.474131 1.482027 1.262248
v 3.475580 3.307303 9.749918
v 3.474254 4.398740 9.731110
v 3.474817 1.477874 6.096186
v 3.475207 5.506160 8.088196
v 3.472942 1.482027 1.262248
v 3.474219 5.494430 1.893003
v 3.476236 0.893905 0.665828
v 3.474313 6.705229 -1.074463
v 3.475843 4.682682 -5.661799
v 3.481987 7.302359 -7.676322
v -3.475408 5.494430 1.893003
v 3.477688 6.179012 1.587500
v -3.478876 6.179012 1.587500
v -3.476006 1.477874 6.096186
v -2.608938 3.523832 10.091187
v -3.476769 3.307303 9.749918
v -3.475047 0.890585 -7.562568
v 3.473859 0.890585 -7.562568
v -3.476395 5.506160 8.088196
v -3.475443 4.398740 9.731110
v -2.607893 5.500146 8.581264
v -2.608442 4.401751 10.075584
v 2.606705 5.500146 8.581264
v 2.607254 4.401751 10.075584
v 2.607749 3.523832 10.091187
v 3.476601 3.521990 -7.609660
v 3.475883 3.523145 -5.643357
v -3.477789 3.521990 -7.609660
v -3.477072 3.523145 -5.643357
v 3.476431 4.681662 -7.629692
v -3.477620 4.681662 -7.629692
v -3.014646 3.511205 -7.214627
v 3.013458 3.511205 -7.214627
v 3.012095 3.527398 -5.641609
v 3.011702 4.684284 -5.663238
v 3.013006 4.686756 -7.235817
v -3.014195 4.686756 -7.235817
v -3.012890 4.684284 -5.663238
v -3.013284 3.527398 -5.641609
v 3.468338 7.304434 -4.038276
v -3.483366 7.304434 -4.038276
v -3.482546 7.302359 -7.676322
v 3.467517 7.302359 -7.676322
v -3.303185 5.506524 7.706978
v -3.300964 5.496033 1.889812
v -2.605304 7.448996 1.610019
v -3.300965 6.760837 -4.108529
v -2.606894 7.645116 -3.015724
v 3.301034 6.760837 -4.108529
v 2.606963 7.645116 -3.015724
v 2.605374 7.448996 1.610019
v 1.623700 8.468179 1.591725
v 1.506086 8.477034 3.533205
v -1.623630 8.468179 1.591725
v -1.506016 8.477034 3.533205
v -2.430806 6.936408 5.771764
v -1.826741 6.936141 7.027897
v -2.173070 5.501674 8.568419
v 1.826810 6.936141 7.027897
v 2.173139 5.501674 8.568419
v 3.303255 5.506524 7.706978
v -1.040912 7.967394 5.289597
v 1.040981 7.967394 5.289597
v 2.430876 6.936408 5.771764
v 3.301034 5.496033 1.889812
v 1.622954 8.214637 -1.404018
v -1.622885 8.214637 -1.404018
vn 0.6722 -0.0844 -0.7355
vn 0.7401 0.0774 0.6680
vn 0.6935 0.0836 0.7155
vn -0.7401 0.0774 0.6680
vn -0.6935 0.0836 0.7155
vn -0.6722 -0.0844 -0.7355
vn -0.7192 -0.0783 -0.6904
vn 0.7192 -0.0783 -0.6904
vn 0.5283 0.2726 -0.8041
vn 0.5328 0.3024 0.7904
vn 0.7231 0.4020 0.5617
vn -0.7418 -0.3967 0.5407
vn -0.5262 -0.2704 0.8062
vn -0.7105 -0.3983 -0.5801
vn -0.5249 -0.2981 -0.7973
vn 0.7416 0.3923 -0.5441
vn -0.5283 0.2726 -0.8041
vn -0.5328 0.3024 0.7904
vn -0.7231 0.4020 0.5617
vn 0.7418 -0.3967 0.5407
vn 0.5262 -0.2704 0.8062
vn 0.7105 -0.3983 -0.5801
vn 0.5249 -0.2981 -0.7973
vn -0.7416 0.3923 -0.5441
vn 0.7045 0.0061 -0.7097
vn -0.7045 0.0061 -0.7097
vn 0.5778 0.5807 -0.5736
vn -0.5778 0.5806 -0.5736
vn -0.5723 0.5806 0.5792
vn -0.7106 0.0110 0.7035
vn 0.5723 0.5806 0.5792
vn 0.7106 0.0110 0.7035
vn 0.7113 -0.0180 -0.7027
vn -0.7097 -0.0039 -0.7045
vn 0.5759 0.5723 -0.5838
vn -0.5779 0.5756 -0.5786
vn -0.5758 0.5867 0.5695
vn -0.6997 0.0189 0.7142
vn 0.5797 0.5770 0.5754
vn 0.7069 0.0044 0.7073
vn 0.5779 0.5756 -0.5786
vn -0.5759 0.5723 -0.5838
vn 0.7097 -0.0039 -0.7045
vn -0.7113 -0.0180 -0.7027
vn 0.6997 0.0189 0.7142
vn 0.5758 0.5867 0.5695
vn -0.7069 0.0043 0.7073
vn -0.5797 0.5770 0.5754
vn 0.8458 0.4533 0.2814
vn -0.8456 0.4566 0.2767
vn 0.7978 0.2616 0.5432
vn -0.7894 0.2824 0.5451
vn -0.7023 -0.0102 -0.7118
vn -0.9028 -0.3054 -0.3028
vn -0.6855 0.7246 0.0703
vn -0.6314 -0.7171 0.2952
vn -0.8029 -0.5509 0.2276
vn 0.6684 -0.4643 0.5811
vn 0.7402 0.3450 0.5772
vn 0.6588 -0.7322 0.1726
vn 0.6869 0.7119 0.1462
vn 0.8020 -0.5515 0.2294
vn 0.8525 0.4384 0.2848
vn 0.6311 -0.7174 0.2949
vn 0.6855 0.7247 0.0702
vn 0.9026 -0.3066 -0.3024
vn 0.7041 -0.0146 -0.7100
vn -0.8526 0.4383 0.2845
vn 0.6194 0.6134 0.4900
vn -0.6194 0.6134 0.4900
vn -0.6588 -0.7323 0.1726
vn -0.1266 -0.4258 0.8959
vn -0.6680 -0.4645 0.5814
vn -0.5780 -0.5824 -0.5716
vn 0.5780 -0.5824 -0.5717
vn -0.6867 0.7121 0.1461
vn -0.7397 0.3453 0.5776
vn -0.0951 0.9323 0.3491
vn -0.1649 0.4363 0.8846
vn 0.0951 0.9323 0.3491
vn 0.1649 0.4363 0.8846
vn 0.1266 -0.4258 0.8959
vn 0.5741 0.5760 -0.5819
vn 0.9072 0.2958 -0.2991
vn -0.5742 0.5771 -0.5807
vn -0.9060 0.2967 -0.3019
vn 0.5765 -0.5849 -0.5705
vn -0.5783 -0.5831 -0.5705
vn -0.2976 0.9088 -0.2923
vn 0.2923 0.9093 -0.2963
vn 0.5777 0.5688 -0.5854
vn 0.5784 -0.5824 -0.5712
vn 0.2934 -0.9094 -0.2949
vn -0.2922 -0.9095 -0.2958
vn -0.5785 -0.5834 -0.5700
vn -0.5787 0.5666 -0.5866
vn -0.0000 1.0000 -0.0006
vn -0.6193 0.6907 0.3735
vn -0.9402 0.3392 0.0300
vn -0.8400 0.5404 0.0495
vn -0.4821 0.7888 -0.3813
vn -0.4217 0.8547 -0.3029
vn 0.4821 0.7888 -0.3813
vn 0.4217 0.8547 -0.3029
vn 0.8400 0.5404 0.0495
vn 0.3815 0.9243 -0.0093
vn 0.3922 0.9085 0.1443
vn -0.3815 0.9243 -0.0093
vn -0.3922 0.9085 0.1443
vn -0.6882 0.6976 0.1992
vn -0.2958 0.8129 0.5018
vn -0.2060 0.7388 0.6416
vn 0.2958 0.8129 0.5018
vn 0.2060 0.7388 0.6416
vn 0.6193 0.6907 0.3735
vn -0.1481 0.9104 0.3863
vn 0.1481 0.9104 0.3863
vn 0.6882 0.6976 0.1992
vn 0.9402 0.3392 0.0300
vn 0.1700 0.9707 -0.1697
vn -0.1700 0.9707 -0.1698
vt 0.109620 0.500000
vt 0.054290 0.500000
vt 0.054090 0.326980
vt 0.004060 0.500000
vt 0.003860 0.326980
vt 0.059380 0.500000
vt 0.059180 0.326980
vt 0.109420 0.326980
vt 0.102520 0.500000
vt 0.048110 0.500000
vt 0.049800 0.326720
vt 0.004200 0.500000
vt 0.005890 0.326720
vt 0.046790 0.500000
vt 0.048470 0.326720
vt 0.104210 0.326720
vt 0.046900 0.500000
vt 0.000500 0.326460
vt 0.000010 0.500000
vt 0.045820 0.500000
vt 0.046320 0.326460
vt 0.101160 0.500000
vt 0.101650 0.326460
vt 0.047390 0.326460
vt 0.774940 0.735950
vt 0.637090 0.735950
vt 0.774940 0.801080
vt 0.637090 0.801080
vt 0.410830 0.195270
vt 0.574600 0.195270
vt 0.410830 0.148670
vt 0.574600 0.148660
vt 0.774940 0.735950
vt 0.229810 0.496900
vt 0.113350 0.496900
vt 0.229810 0.320870
vt 0.113350 0.320870
vt 0.574600 0.148660
vt 0.574600 0.195270
vt 0.410830 0.148670
vt 0.410830 0.195270
vt 0.357640 0.417150
vt 0.251490 0.417150
vt 0.357640 0.482280
vt 0.251490 0.482280
vt 0.535320 0.185610
vt 0.721350 0.185610
vt 0.535320 0.126560
vt 0.721350 0.126560
vt 0.357640 0.482280
vt 0.251490 0.482280
vt 0.251490 0.417150
vt 0.230010 0.495650
vt 0.113950 0.495650
vt 0.230010 0.319620
vt 0.113950 0.319620
vt 0.761410 0.108960
vt 0.761410 0.155570
vt 0.597630 0.108970
vt 0.597630 0.155570
vt 0.253550 0.885740
vt 0.253550 0.820620
vt 0.147410 0.885740
vt 0.147410 0.820620
vt 0.721350 0.126560
vt 0.721350 0.185610
vt 0.535320 0.126560
vt 0.253550 0.820610
vt 0.253550 0.885740
vt 0.147410 0.820620
vt 0.229910 0.320820
vt 0.229910 0.496850
vt 0.113850 0.320820
vt 0.113850 0.496850
vt 0.761410 0.155570
vt 0.597630 0.108970
vt 0.773100 0.905570
vt 0.790080 0.999500
vt 0.790080 0.998280
vt 0.999500 0.998280
vt 0.773100 0.974550
vt 0.886300 0.876420
vt 0.620150 0.974700
vt 0.525940 0.688360
vt 0.491040 0.719700
vt 0.000500 0.808480
vt 0.212750 0.719700
vt 0.000500 0.862170
vt 0.093890 0.915740
vt 0.491040 0.719700
vt 0.450470 0.915740
vt 0.620150 0.974700
vt 0.331740 0.002640
vt 0.355720 0.002640
vt 0.331740 0.312290
vt 0.355720 0.312290
vt 0.571330 0.002640
vt 0.571330 0.312290
vt 0.787290 0.002640
vt 0.787290 0.312290
vt 0.467450 0.948930
vt 0.450470 0.915740
vt 0.000180 0.043480
vt 0.017670 0.006690
vt 0.017670 0.312330
vt 0.017670 0.000000
vt 0.225790 0.000000
vt 0.225790 0.312330
vt 0.498670 -0.000000
vt 0.498670 0.312330
vt 0.532900 0.000000
vt 0.532900 0.312330
vt 0.996280 0.000000
vt 0.996280 0.312330
vt 0.502460 0.672720
vt 0.502460 0.524510
vt 0.564320 0.672720
vt 0.564320 0.524510
vt 0.935510 0.672720
vt 0.935510 0.524500
vt 0.997370 0.524500
vt 0.935510 0.422210
vt 0.997370 0.421970
vt 0.465420 0.096790
vt 0.505380 0.074410
vt 0.465420 0.231050
vt 0.505380 0.253420
vt 0.564320 0.422220
vt 0.093890 0.915740
vt 0.000500 0.862170
vt 0.450470 0.717710
vt 0.093890 0.717710
vt 0.450470 0.717710
vt 0.093890 0.717710
vt 0.999500 0.819430
vt 0.886300 0.819430
vt 0.999500 0.688360
vt 0.497960 0.697380
vt 0.003010 0.697380
vt 0.497960 0.518520
vt 0.003010 0.518520
vt 0.003010 0.697380
vt 0.003010 0.518520
vt 0.497960 0.697380
vt 0.000000 0.000000
vt 0.999500 0.410080
vt 0.886300 0.410080
vt 0.886300 0.592110
vt 0.999500 0.592110
vt 0.999500 0.592110
vt 0.999500 0.410080
vt 0.255130 0.997300
vt 0.255130 0.931720
vt 0.416930 0.997300
vt 0.416930 0.931720
vt 0.000920 0.998180
vt 0.000920 0.931720
vt 0.251440 0.998180
vt 0.251440 0.931720
vt 0.416930 0.997300
vt 0.999500 0.876420
vt 0.999500 0.876420
vt 0.997370 0.672720
vt 0.502460 0.421980
vt 0.000180 0.272710
vt 0.498800 0.688440
vt 0.498800 0.999500
vt 0.001340 0.688440
vt 0.001340 0.999500
vt 0.505300 0.071710
vt 0.605190 0.547370
vt 0.505300 0.528080
vt 0.505300 0.996970
vt 0.605190 0.910060
vt 0.991800 0.996970
vt 0.903990 0.910060
vt 0.903990 0.547370
vt 0.825440 0.547370
vt 0.819720 0.395030
vt 0.670230 0.547370
vt 0.675960 0.395030
vt 0.613780 0.221440
vt 0.660220 0.122950
vt 0.643040 0.004100
vt 0.840530 0.122950
vt 0.857700 0.004100
vt 0.991800 0.071710
vt 0.698850 0.257970
vt 0.800200 0.257970
vt 0.895410 0.221440
vt 0.991800 0.528080
vt 0.830510 0.782760
vt 0.670230 0.782760
s 1
usemtl be14087e172c44e6-XA128.png
f 1/1/1 2/2/2 3/3/3
f 2/2/2 4/4/4 3/3/3
f 3/3/3 4/4/4 5/5/5
f 4/4/4 6/6/6 5/5/5
f 5/5/5 6/6/6 7/7/7
f 6/6/6 1/1/1 7/7/7
f 7/7/7 1/1/1 8/8/8
f 1/1/1 3/3/3 8/8/8
f 9/9/9 10/10/10 11/11/11
f 10/10/10 12/12/12 11/11/11
f 11/11/11 12/12/12 13/13/13
f 12/12/12 14/14/14 13/13/13
f 13/13/13 14/14/14 15/15/15
f 14/14/14 9/9/9 15/15/15
f 15/15/15 9/9/9 16/16/16
f 9/9/9 11/11/11 16/16/16
f 17/17/17 19/18/19 18/19/18
f 18/19/18 19/18/19 20/20/20
f 19/18/19 21/21/21 20/20/20
f 20/20/20 21/21/21 22/22/22
f 21/21/21 23/23/23 22/22/22
f 22/22/22 23/23/23 17/17/17
f 23/23/23 24/24/24 17/17/17
f 17/17/17 24/24/24 19/18/19
f 25/25/25 26/26/26 27/27/27
f 26/26/26 28/28/28 27/27/27
f 29/29/29 28/30/28 30/31/30
f 30/31/30 28/30/28 26/32/26
f 31/27/31 29/28/29 32/33/32
f 32/33/32 29/28/29 30/26/30
f 27/34/27 28/35/28 31/36/31
f 31/36/31 28/35/28 29/37/29
f 25/38/25 27/39/27 32/40/32
f 32/40/32 27/39/27 31/41/31
f 33/42/33 34/43/34 35/44/35
f 34/43/34 36/45/36 35/44/35
f 37/46/37 36/47/36 38/48/38
f 38/48/38 36/47/36 34/49/34
f 39/50/39 37/51/37 40/42/40
f 40/42/40 37/51/37 38/52/38
f 35/53/35 36/54/36 39/55/39
f 39/55/39 36/54/36 37/56/37
f 33/57/33 35/58/35 40/59/40
f 40/59/40 35/58/35 39/60/39
f 41/61/41 43/62/43 42/63/42
f 42/63/42 43/62/43 44/64/44
f 43/65/43 41/66/41 45/67/45
f 41/66/41 46/46/46 45/67/45
f 45/68/45 46/69/46 47/70/47
f 46/69/46 48/63/48 47/70/47
f 46/71/46 41/72/41 48/73/48
f 41/72/41 42/74/42 48/73/48
f 48/60/48 42/75/42 47/76/47
f 47/76/47 42/75/42 44/57/44
f 49/77/49 51/78/51 50/77/50
f 50/77/50 51/78/51 52/78/52
f 52/79/52 53/80/53 50/81/50
f 53/80/53 54/82/54 50/81/50
f 50/81/50 54/82/54 55/83/55
f 54/82/54 56/84/56 55/83/55
f 55/83/55 56/84/56 57/85/57
f 58/86/58 60/87/60 59/88/59
f 59/88/59 60/87/60 61/89/61
f 60/87/60 62/90/62 61/89/61
f 61/89/61 62/90/62 63/91/63
f 62/90/62 64/84/64 63/91/63
f 63/91/63 64/84/64 65/92/65
f 64/84/64 66/82/66 65/92/65
f 65/92/65 66/82/66 49/81/49
f 66/82/66 67/80/67 49/81/49
f 49/81/49 67/80/67 51/79/51
f 63/93/63 69/94/69 68/95/68
f 68/95/68 69/94/69 70/96/70
f 69/94/69 65/97/65 70/96/70
f 70/96/70 65/97/65 55/98/55
f 65/97/65 49/99/49 55/98/55
f 55/98/55 49/99/49 50/100/50
f 70/101/70 55/83/55 68/102/68
f 55/83/55 57/85/57 68/102/68
f 68/102/68 57/85/57 71/87/71
f 72/103/72 73/104/73 58/105/58
f 73/106/73 71/107/71 58/105/58
f 58/105/58 71/107/71 60/108/60
f 71/107/71 57/109/57 60/108/60
f 60/108/60 57/109/57 62/110/62
f 57/109/57 56/111/56 62/110/62
f 62/110/62 56/111/56 64/112/64
f 56/111/56 74/113/74 64/112/64
f 64/112/64 74/113/74 75/114/75
f 76/115/76 77/116/77 78/117/78
f 77/116/77 79/118/79 78/117/78
f 78/117/78 79/118/79 80/119/80
f 79/118/79 81/120/81 80/119/80
f 80/119/80 81/120/81 59/121/59
f 81/120/81 82/122/82 59/121/59
f 59/121/59 82/122/82 58/123/58
f 80/124/80 61/125/61 78/126/78
f 61/125/61 76/127/76 78/126/78
f 82/122/82 81/120/81 72/128/72
f 81/120/81 79/118/79 72/128/72
f 72/128/72 79/118/79 77/116/77
f 68/102/68 71/87/71 76/129/76
f 71/87/71 73/86/73 76/129/76
f 76/129/76 73/86/73 77/130/77
f 68/131/68 76/132/76 63/133/63
f 63/133/63 76/132/76 61/134/61
f 83/135/83 84/136/84 75/137/75
f 75/137/75 84/136/84 64/84/64
f 84/136/84 66/82/66 64/84/64
f 85/138/85 83/139/83 74/140/74
f 74/140/74 83/139/83 75/141/75
f 54/82/54 86/136/86 56/84/56
f 56/84/56 86/136/86 74/137/74
f 86/136/86 85/135/85 74/137/74
f 67/142/67 87/143/87 53/144/53
f 87/143/87 88/140/88 53/144/53
f 89/145/89 90/145/90 83/146/83
f 90/145/90 91/145/91 83/146/83
f 83/146/83 91/145/91 84/147/84
f 91/145/91 92/145/92 84/147/84
f 84/147/84 92/145/92 66/148/66
f 92/145/92 93/145/93 66/148/66
f 66/148/66 93/145/93 87/149/87
f 93/145/93 94/145/94 87/149/87
f 87/149/87 94/145/94 88/150/88
f 94/145/94 95/145/95 88/150/88
f 88/150/88 95/145/95 54/148/54
f 95/145/95 96/145/96 54/148/54
f 54/148/54 96/145/96 86/147/86
f 96/145/96 89/145/89 86/147/86
f 86/147/86 89/145/89 85/151/85
f 89/145/89 83/146/83 85/151/85
f 92/152/92 91/153/91 93/154/93
f 91/153/91 90/155/90 93/154/93
f 93/156/93 90/157/90 94/158/94
f 90/157/90 89/159/89 94/158/94
f 94/160/94 89/155/89 95/152/95
f 95/152/95 89/155/89 96/153/96
f 54/82/54 53/80/53 88/161/88
f 67/80/67 66/82/66 87/162/87
f 63/91/63 65/92/65 69/101/69
f 61/163/61 80/119/80 59/121/59
f 77/116/77 73/164/73 72/128/72
f 58/105/58 82/165/82 72/103/72
usemtl c01268c7b064fb51-XA128.png
f 97/166/97 100/167/97 98/168/97
f 98/168/97 100/167/97 99/169/97
f 101/170/98 103/171/100 102/172/99
f 102/172/99 103/171/100 104/173/101
f 103/171/100 105/174/102 104/173/101
f 104/173/101 105/174/102 106/175/103
f 105/174/102 107/176/104 106/175/103
f 106/175/103 107/176/104 108/177/105
f 107/176/104 109/178/106 108/177/105
f 108/177/105 109/178/106 110/179/107
f 109/178/106 111/180/108 110/179/107
f 110/179/107 111/180/108 112/181/109
f 111/180/108 103/171/100 112/181/109
f 112/181/109 103/171/100 113/182/110
f 103/171/100 101/170/98 113/182/110
f 113/182/110 101/170/98 114/183/111
f 101/170/98 115/184/112 114/183/111
f 114/183/111 115/184/112 116/185/113
f 115/184/112 117/186/114 116/185/113
f 116/185/113 117/186/114 118/187/115
f 116/185/113 119/188/116 114/183/111
f 114/183/111 119/188/116 112/181/109
f 119/188/116 120/189/117 112/181/109
f 112/181/109 120/189/117 110/179/107
f 120/189/117 116/185/113 110/179/107
f 110/179/107 116/185/113 121/190/118
f 116/185/113 118/187/115 121/190/118
f 121/190/118 118/187/115 108/177/105
f 118/187/115 122/191/119 108/177/105
f 108/177/105 122/191/119 106/175/103
f 109/178/106 107/176/104 123/192/120
f 107/176/104 105/174/102 123/192/120
f 123/192/120 105/174/102 124/193/121
f 105/174/102 111/180/108 124/193/121
f 124/193/121 111/180/108 123/192/120
f 111/180/108 109/178/106 123/192/120
f 103/171/100 111/180/108 105/174/102
f 110/179/107 121/190/118 108/177/105
f 119/188/116 116/185/113 120/189/117
f 112/181/109 113/182/110 114/183/111
